<svg width="74" height="74" viewBox="0 0 74 74" fill="none" xmlns="http://www.w3.org/2000/svg">
<rect width="74" height="74" rx="6" fill="#FFEAE0"/>
<path fill-rule="evenodd" clip-rule="evenodd" d="M33.7975 22.5823C32.6579 22.5823 31.6884 23.3742 31.4163 24.4415H40.5669C40.2947 23.3742 39.3253 22.5823 38.1857 22.5823H33.7975ZM43.1521 24.4415H46.5198C50.0915 24.4415 53 27.3853 53 31.0005C53 31.0005 52.8979 32.5309 52.8639 34.6621C52.8605 34.8308 52.7789 34.9961 52.6445 35.0959C51.8264 35.7002 51.078 36.1994 51.01 36.2338C48.1866 38.1275 44.9057 39.46 41.4104 40.1227C41.1825 40.1675 40.958 40.0487 40.8423 39.8456C39.8626 38.1482 38.0325 37.043 35.9915 37.043C33.9641 37.043 32.117 38.1361 31.1084 39.8352C30.991 40.0349 30.7699 40.1503 30.5437 40.1072C27.0773 39.4427 23.7964 38.112 20.99 36.2511L19.3572 35.1149C19.2211 35.0288 19.1361 34.8738 19.1361 34.7017C19.085 33.8237 19 31.0005 19 31.0005C19 27.3853 21.9085 24.4415 25.4802 24.4415H28.8309C29.1541 21.9453 31.2461 20 33.7974 20H38.1856C40.7369 20 42.8289 21.9453 43.1521 24.4415ZM52.421 38.3859L52.3529 38.4203C48.9172 40.7271 44.7841 42.2593 40.447 42.8963C39.8347 42.9823 39.2224 42.5864 39.0523 41.9666C38.6781 40.555 37.4705 39.6254 36.0248 39.6254H36.0078H35.9737C34.528 39.6254 33.3204 40.555 32.9462 41.9666C32.7761 42.5864 32.1638 42.9823 31.5515 42.8963C27.2144 42.2593 23.0813 40.7271 19.6456 38.4203C19.6286 38.4031 19.4585 38.2998 19.3224 38.3859C19.1693 38.472 19.1693 38.6786 19.1693 38.6786L19.2884 47.4583C19.2884 51.0734 22.1798 54 25.7516 54H46.2299C49.8017 54 52.6931 51.0734 52.6931 47.4583L52.8292 38.6786C52.8292 38.6786 52.8292 38.472 52.6761 38.3859C52.591 38.3343 52.489 38.3515 52.421 38.3859ZM37.2657 45.599C37.2657 46.322 36.7044 46.8901 35.9901 46.8901C35.2927 46.8901 34.7145 46.322 34.7145 45.599V43.3783C34.7145 42.6724 35.2927 42.0871 35.9901 42.0871C36.7044 42.0871 37.2657 42.6724 37.2657 43.3783V45.599Z" fill="#FB5F1C"/>
</svg>
