<svg width="74" height="74" viewBox="0 0 74 74" fill="none" xmlns="http://www.w3.org/2000/svg">
<path d="M0 6C0 2.68629 2.68629 0 6 0H68C71.3137 0 74 2.68629 74 6V68C74 71.3137 71.3137 74 68 74H6C2.68629 74 0 71.3137 0 68V6Z" fill="#E4F7F1"/>
<path d="M36.2227 30.3884L28.9328 41.8208L31.0403 50.7032H42.9139L45.1103 41.8208L37.8226 30.3287V41.4483C38.7547 41.7898 39.4225 42.7111 39.4225 43.794C39.4225 45.1677 38.348 46.2813 37.0225 46.2813C35.6971 46.2813 34.6226 45.1677 34.6226 43.794C34.6226 42.711 35.2905 41.7896 36.2227 41.4482V30.3884Z" fill="#01B075"/>
<path d="M37.0225 44.3518C37.2179 44.3518 37.493 44.1677 37.493 43.794C37.493 43.4204 37.2179 43.2362 37.0225 43.2362C36.8271 43.2362 36.5521 43.4204 36.5521 43.794C36.5521 44.1677 36.8271 44.3518 37.0225 44.3518Z" fill="#01B075"/>
<path d="M29.9985 51.8994C29.9985 51.5949 30.2453 51.3481 30.5498 51.3481H43.4914C43.7959 51.3481 44.0427 51.5949 44.0427 51.8994V52.6392C44.0427 52.9437 43.7959 53.1905 43.4914 53.1905H30.5498C30.2453 53.1905 29.9985 52.9437 29.9985 52.6392V51.8994Z" fill="#01B075"/>
<path d="M23.333 23.2968H50.6658V25.1393H23.333V23.2968Z" fill="#01B075"/>
<path d="M24.5777 24.2411C24.5777 25.5512 23.5529 26.6132 22.2888 26.6132C21.0247 26.6132 20 25.5512 20 24.2411C20 22.931 21.0247 21.869 22.2888 21.869C23.5529 21.869 24.5777 22.931 24.5777 24.2411Z" fill="#01B075"/>
<path d="M33.7319 20.8095H40.3095V27.6266H33.7319V20.8095Z" fill="#01B075"/>
<path d="M54.0004 24.2411C54.0004 25.5512 52.9756 26.6132 51.7116 26.6132C50.4475 26.6132 49.4227 25.5512 49.4227 24.2411C49.4227 22.931 50.4475 21.869 51.7116 21.869C52.9756 21.869 54.0004 22.931 54.0004 24.2411Z" fill="#01B075"/>
</svg>
