<svg width="80" height="87" viewBox="0 0 80 87" fill="none" xmlns="http://www.w3.org/2000/svg">
<circle cx="40" cy="40" r="40" fill="#FFE8E0"/>
<g filter="url(#filter0_d_1_812)">
<path fill-rule="evenodd" clip-rule="evenodd" d="M37.7975 25.5823C36.6579 25.5823 35.6884 26.3742 35.4163 27.4415H44.5669C44.2947 26.3742 43.3253 25.5823 42.1857 25.5823H37.7975ZM47.1521 27.4415H50.5198C54.0915 27.4415 57 30.3853 57 34.0005C57 34.0005 56.8979 35.5309 56.8639 37.6621C56.8605 37.8308 56.7789 37.9961 56.6445 38.0959C55.8264 38.7002 55.078 39.1994 55.01 39.2338C52.1866 41.1275 48.9057 42.46 45.4104 43.1227C45.1825 43.1675 44.958 43.0487 44.8423 42.8456C43.8626 41.1482 42.0325 40.043 39.9915 40.043C37.9641 40.043 36.117 41.1361 35.1084 42.8352C34.991 43.0349 34.7699 43.1503 34.5437 43.1072C31.0773 42.4427 27.7964 41.112 24.99 39.2511L23.3572 38.1149C23.2211 38.0288 23.1361 37.8738 23.1361 37.7017C23.085 36.8237 23 34.0005 23 34.0005C23 30.3853 25.9085 27.4415 29.4802 27.4415H32.8309C33.1541 24.9453 35.2461 23 37.7974 23H42.1856C44.7369 23 46.8289 24.9453 47.1521 27.4415ZM56.421 41.3859L56.3529 41.4203C52.9172 43.7271 48.7841 45.2593 44.447 45.8963C43.8347 45.9823 43.2224 45.5864 43.0523 44.9666C42.6781 43.555 41.4705 42.6254 40.0248 42.6254H40.0078H39.9737C38.528 42.6254 37.3204 43.555 36.9462 44.9666C36.7761 45.5864 36.1638 45.9823 35.5515 45.8963C31.2144 45.2593 27.0813 43.7271 23.6456 41.4203C23.6286 41.4031 23.4585 41.2998 23.3224 41.3859C23.1693 41.472 23.1693 41.6786 23.1693 41.6786L23.2884 50.4583C23.2884 54.0734 26.1798 57 29.7516 57H50.2299C53.8017 57 56.6931 54.0734 56.6931 50.4583L56.8292 41.6786C56.8292 41.6786 56.8292 41.472 56.6761 41.3859C56.591 41.3343 56.489 41.3515 56.421 41.3859ZM41.2657 48.599C41.2657 49.322 40.7044 49.8901 39.9901 49.8901C39.2927 49.8901 38.7145 49.322 38.7145 48.599V46.3783C38.7145 45.6724 39.2927 45.0871 39.9901 45.0871C40.7044 45.0871 41.2657 45.6724 41.2657 46.3783V48.599Z" fill="#FB5F1C"/>
</g>
<defs>
<filter id="filter0_d_1_812" x="3" y="13" width="74" height="74" filterUnits="userSpaceOnUse" color-interpolation-filters="sRGB">
<feFlood flood-opacity="0" result="BackgroundImageFix"/>
<feColorMatrix in="SourceAlpha" type="matrix" values="0 0 0 0 0 0 0 0 0 0 0 0 0 0 0 0 0 0 127 0" result="hardAlpha"/>
<feOffset dy="10"/>
<feGaussianBlur stdDeviation="10"/>
<feColorMatrix type="matrix" values="0 0 0 0 0.691667 0 0 0 0 0.322726 0 0 0 0 0.164271 0 0 0 0.2 0"/>
<feBlend mode="normal" in2="BackgroundImageFix" result="effect1_dropShadow_1_812"/>
<feBlend mode="normal" in="SourceGraphic" in2="effect1_dropShadow_1_812" result="shape"/>
</filter>
</defs>
</svg>
